<svg width="98" height="251" viewBox="0 0 98 251" fill="none" xmlns="http://www.w3.org/2000/svg">
<path d="M96.7678 233.768C97.7441 232.791 97.7441 231.209 96.7678 230.232L80.8579 214.322C79.8816 213.346 78.2986 213.346 77.3223 214.322C76.346 215.299 76.346 216.882 77.3223 217.858L91.4645 232L77.3223 246.142C76.346 247.118 76.346 248.701 77.3223 249.678C78.2986 250.654 79.8816 250.654 80.8579 249.678L96.7678 233.768ZM47.5 117.5L45.1908 116.542L47.5 117.5ZM0 3C0 5.5 -0.000194276 5.5 -0.000381795 5.5C-0.000435319 5.5 -0.000616215 5.5 -0.000723315 5.5C-0.000937575 5.5 -0.001125 5.5 -0.00128564 5.5C-0.0016069 5.5 -0.00182098 5.5 -0.00192817 5.5C-0.00214254 5.5 -0.00192935 5.5 -0.0012909 5.5C-1.39789e-05 5.5 0.00296378 5.50001 0.007624 5.50004C0.0169447 5.50009 0.0329937 5.50019 0.0556239 5.50043C0.100887 5.50091 0.172461 5.5019 0.269172 5.50398C0.462614 5.50814 0.756484 5.51663 1.14139 5.53395C1.91141 5.5686 3.04443 5.63854 4.46548 5.7796L4.95939 0.804059C3.4406 0.653291 2.2174 0.577313 1.36616 0.539006C0.940439 0.519848 0.607421 0.510099 0.376632 0.505137C0.261228 0.502656 0.171351 0.501372 0.108192 0.500708C0.0766108 0.500376 0.0517059 0.500199 0.0336255 0.500105C0.0245851 0.500058 0.0172505 0.500032 0.0116402 0.500017C0.00883505 0.50001 0.00646091 0.500006 0.00452011 0.500003C0.00354971 0.500002 0.00268765 0.500001 0.0019342 0.500001C0.00155748 0.5 0.00120791 0.5 0.000885528 0.5C0.000724369 0.5 0.00050292 0.5 0.000422358 0.5C0.0002078 0.5 0 0.5 0 3ZM13.6236 7.24367C16.3752 7.84876 19.3797 8.66204 22.4869 9.75432L24.1451 5.03728C20.8213 3.86887 17.6189 3.00279 14.6975 2.36035L13.6236 7.24367ZM30.9168 13.3815C33.5471 14.7459 36.1498 16.3426 38.6425 18.2106L41.6409 14.2094C38.9064 12.1601 36.0671 10.4204 33.2191 8.9431L30.9168 13.3815ZM45.3602 24.2827C47.3276 26.4338 49.1495 28.8325 50.7678 31.5092L55.0466 28.9224C53.2517 25.9536 51.2303 23.2923 49.0498 20.9083L45.3602 24.2827ZM54.682 39.6535C55.6805 42.3448 56.5019 45.2589 57.1083 48.4155L62.0185 47.4722C61.3616 44.0528 60.467 40.872 59.3698 37.9144L54.682 39.6535ZM58.1971 57.577C58.3467 60.4689 58.3363 63.5295 58.1455 66.7685L63.1369 67.0624C63.3379 63.6496 63.35 60.4044 63.1904 57.3187L58.1971 57.577ZM57.1689 76.0108C56.7297 78.9474 56.1561 82.0102 55.4369 85.2044L60.3148 86.3027C61.0593 82.9963 61.6558 79.8138 62.1139 76.7504L57.1689 76.0108ZM53.0938 94.2879C52.2588 97.1753 51.3142 100.158 50.2533 103.239L54.981 104.867C56.0677 101.711 57.0377 98.6482 57.897 95.677L53.0938 94.2879ZM46.9989 112.064C46.4212 113.536 45.8187 115.029 45.1908 116.542L49.8092 118.458C50.4491 116.915 51.0636 115.393 51.6533 113.89L46.9989 112.064ZM45.1908 116.542C44.5509 118.085 43.9364 119.607 43.3467 121.11L48.0011 122.936C48.5788 121.464 49.1813 119.971 49.8092 118.458L45.1908 116.542ZM40.019 130.133C38.9323 133.289 37.9623 136.352 37.103 139.323L41.9062 140.712C42.7412 137.825 43.6858 134.842 44.7467 131.761L40.019 130.133ZM34.6852 148.697C33.9407 152.004 33.3442 155.186 32.8861 158.25L37.831 158.989C38.2703 156.053 38.8439 152.99 39.5631 149.796L34.6852 148.697ZM31.8631 167.938C31.6621 171.35 31.65 174.596 31.8096 177.681L36.8029 177.423C36.6533 174.531 36.6637 171.471 36.8545 168.232L31.8631 167.938ZM32.9815 187.528C33.6384 190.947 34.533 194.128 35.6302 197.086L40.318 195.346C39.3195 192.655 38.4981 189.741 37.8917 186.585L32.9815 187.528ZM39.9534 206.078C41.7483 209.046 43.7698 211.708 45.9502 214.092L49.6398 210.717C47.6725 208.566 45.8505 206.167 44.2322 203.491L39.9534 206.078ZM53.3591 220.791C56.0936 222.84 58.9329 224.58 61.7809 226.057L64.0832 221.619C61.4529 220.254 58.8502 218.657 56.3575 216.789L53.3591 220.791ZM70.8549 229.963C74.1787 231.131 77.3811 231.997 80.3025 232.64L81.3764 227.756C78.6248 227.151 75.6203 226.338 72.5131 225.246L70.8549 229.963ZM90.0406 234.196C91.5594 234.347 92.7826 234.423 93.6338 234.461C94.0596 234.48 94.3926 234.49 94.6234 234.495C94.7388 234.497 94.8286 234.499 94.8918 234.499C94.9234 234.5 94.9483 234.5 94.9664 234.5C94.9754 234.5 94.9827 234.5 94.9884 234.5C94.9912 234.5 94.9935 234.5 94.9955 234.5C94.9964 234.5 94.9973 234.5 94.9981 234.5C94.9984 234.5 94.9988 234.5 94.9991 234.5C94.9993 234.5 94.9995 234.5 94.9996 234.5C94.9998 234.5 95 234.5 95 232C95 229.5 95.0002 229.5 95.0004 229.5C95.0004 229.5 95.0006 229.5 95.0007 229.5C95.0009 229.5 95.0011 229.5 95.0013 229.5C95.0016 229.5 95.0018 229.5 95.0019 229.5C95.0021 229.5 95.0019 229.5 95.0013 229.5C95 229.5 94.997 229.5 94.9924 229.5C94.9831 229.5 94.967 229.5 94.9444 229.5C94.8991 229.499 94.8275 229.498 94.7308 229.496C94.5374 229.492 94.2435 229.483 93.8586 229.466C93.0886 229.431 91.9556 229.361 90.5345 229.22L90.0406 234.196Z" fill="#9B8FF3"/>
</svg>
