<svg width="10" height="10" viewBox="0 0 10 10" fill="none" xmlns="http://www.w3.org/2000/svg">
<path d="M5.01425 0.664C5.62225 0.664 6.17425 0.762666 6.67025 0.96C7.17158 1.15733 7.59825 1.43733 7.95025 1.8C8.30758 2.16267 8.58225 2.60533 8.77425 3.128C8.96625 3.65067 9.06225 4.23467 9.06225 4.88C9.06225 5.53067 8.96625 6.11733 8.77425 6.64C8.58225 7.16267 8.30758 7.608 7.95025 7.976C7.59825 8.344 7.17158 8.62667 6.67025 8.824C6.17425 9.02133 5.62225 9.12 5.01425 9.12C4.40092 9.12 3.84358 9.02133 3.34225 8.824C2.84092 8.62667 2.41158 8.344 2.05425 7.976C1.70225 7.608 1.42758 7.16267 1.23025 6.64C1.03825 6.11733 0.94225 5.53067 0.94225 4.88C0.94225 4.23467 1.03825 3.65067 1.23025 3.128C1.42758 2.60533 1.70225 2.16267 2.05425 1.8C2.41158 1.43733 2.84092 1.15733 3.34225 0.96C3.84358 0.762666 4.40092 0.664 5.01425 0.664ZM5.01425 7.6C5.69692 7.6 6.20092 7.37067 6.52625 6.912C6.85692 6.45333 7.02225 5.78133 7.02225 4.896C7.02225 4.01067 6.85692 3.336 6.52625 2.872C6.20092 2.408 5.69692 2.176 5.01425 2.176C4.32092 2.176 3.80625 2.41067 3.47025 2.88C3.13958 3.344 2.97425 4.016 2.97425 4.896C2.97425 5.776 3.13958 6.448 3.47025 6.912C3.80625 7.37067 4.32092 7.6 5.01425 7.6Z" fill="#062341"/>
</svg>
