<svg width="231" height="87" viewBox="0 0 231 87" fill="none" xmlns="http://www.w3.org/2000/svg">
<mask id="path-1-inside-1_6369_24170" fill="white">
<path fill-rule="evenodd" clip-rule="evenodd" d="M15.6908 32.9088L0 43.3013L15.6908 53.6937V70.3013C15.6908 78.5855 22.4065 85.3013 30.6907 85.3013H63.4127L65.3774 86.6025V85.3013H216C224.284 85.3013 231 78.5855 231 70.3013V16.3013C231 8.017 224.284 1.30127 216 1.30127H65.3774V0L63.4127 1.30127H30.6908C22.4065 1.30127 15.6908 8.017 15.6908 16.3013V32.9088Z"/>
</mask>
<path fill-rule="evenodd" clip-rule="evenodd" d="M15.6908 32.9088L0 43.3013L15.6908 53.6937V70.3013C15.6908 78.5855 22.4065 85.3013 30.6907 85.3013H63.4127L65.3774 86.6025V85.3013H216C224.284 85.3013 231 78.5855 231 70.3013V16.3013C231 8.017 224.284 1.30127 216 1.30127H65.3774V0L63.4127 1.30127H30.6908C22.4065 1.30127 15.6908 8.017 15.6908 16.3013V32.9088Z" fill="#F8FBFF"/>
<path d="M0 43.3013L-0.552194 42.4676L-1.81096 43.3013L-0.552194 44.135L0 43.3013ZM15.6908 32.9088L16.2429 33.7426L16.6908 33.446V32.9088H15.6908ZM15.6908 53.6937H16.6908V53.1566L16.2429 52.86L15.6908 53.6937ZM63.4127 85.3013L63.9649 84.4676L63.7138 84.3013H63.4127V85.3013ZM65.3774 86.6025L64.8252 87.4363L66.3774 88.4643V86.6025H65.3774ZM65.3774 85.3013V84.3013H64.3774V85.3013H65.3774ZM65.3774 1.30127H64.3774V2.30127H65.3774V1.30127ZM65.3774 0H66.3774V-1.86178L64.8252 -0.833716L65.3774 0ZM63.4127 1.30127V2.30127H63.7138L63.9649 2.13499L63.4127 1.30127ZM0.552194 44.135L16.2429 33.7426L15.1386 32.0751L-0.552194 42.4676L0.552194 44.135ZM16.2429 52.86L0.552194 42.4676L-0.552194 44.135L15.1386 54.5274L16.2429 52.86ZM16.6908 70.3013V53.6937H14.6908V70.3013H16.6908ZM30.6907 84.3013C22.9588 84.3013 16.6908 78.0333 16.6908 70.3013H14.6908C14.6908 79.1378 21.8542 86.3013 30.6907 86.3013V84.3013ZM63.4127 84.3013H30.6907V86.3013H63.4127V84.3013ZM65.9296 85.7688L63.9649 84.4676L62.8605 86.135L64.8252 87.4363L65.9296 85.7688ZM64.3774 85.3013V86.6025H66.3774V85.3013H64.3774ZM216 84.3013H65.3774V86.3013H216V84.3013ZM230 70.3013C230 78.0333 223.732 84.3013 216 84.3013V86.3013C224.837 86.3013 232 79.1378 232 70.3013H230ZM230 16.3013V70.3013H232V16.3013H230ZM216 2.30127C223.732 2.30127 230 8.56928 230 16.3013H232C232 7.46472 224.837 0.30127 216 0.30127V2.30127ZM65.3774 2.30127H216V0.30127H65.3774V2.30127ZM64.3774 0V1.30127H66.3774V0H64.3774ZM63.9649 2.13499L65.9296 0.833716L64.8252 -0.833716L62.8605 0.467553L63.9649 2.13499ZM30.6908 2.30127H63.4127V0.30127H30.6908V2.30127ZM16.6908 16.3013C16.6908 8.56928 22.9588 2.30127 30.6908 2.30127V0.30127C21.8542 0.30127 14.6908 7.46471 14.6908 16.3013H16.6908ZM16.6908 32.9088V16.3013H14.6908V32.9088H16.6908Z" fill="#9B8FF3" mask="url(#path-1-inside-1_6369_24170)"/>
</svg>
