<svg width="1249" height="340" viewBox="0 0 1249 340" fill="none" xmlns="http://www.w3.org/2000/svg">
<path d="M0 9.99999C0 4.47714 4.47715 0 10 0H1239C1244.52 0 1249 4.47715 1249 10V71.3112C1249 76.8341 1244.44 81.1901 1239.03 82.3186C1174.62 95.7623 1174.62 239.459 1239.03 252.903C1244.44 254.032 1249 258.388 1249 263.91V330C1249 335.523 1244.52 340 1239 340H9.99999C4.47714 340 0 335.523 0 330V263.91C0 258.388 4.55396 254.015 9.99227 253.053C80.7396 240.53 79.6189 94.9144 9.98741 82.1967C4.55444 81.2045 0 76.8341 0 71.3112V9.99999Z" fill="url(#paint0_linear_5535_17609)"/>
<defs>
<linearGradient id="paint0_linear_5535_17609" x1="0" y1="0" x2="307.415" y2="734.232" gradientUnits="userSpaceOnUse">
<stop stop-color="#9B8FF3"/>
<stop offset="1" stop-color="#38F6F9"/>
</linearGradient>
</defs>
</svg>
