<svg width="162" height="87" viewBox="0 0 162 87" fill="none" xmlns="http://www.w3.org/2000/svg">
<mask id="path-1-inside-1_0_1" fill="white">
<path fill-rule="evenodd" clip-rule="evenodd" d="M11.0039 32.9088L0 43.3013L11.0039 53.6937V70.3013C11.0039 78.5855 17.7196 85.3013 26.0039 85.3013H44.4712L45.849 86.6025V85.3013H147C155.284 85.3013 162 78.5855 162 70.3013V16.3013C162 8.017 155.284 1.30127 147 1.30127H45.849V0L44.4712 1.30127H26.0039C17.7196 1.30127 11.0039 8.017 11.0039 16.3013V32.9088Z"/>
</mask>
<path fill-rule="evenodd" clip-rule="evenodd" d="M11.0039 32.9088L0 43.3013L11.0039 53.6937V70.3013C11.0039 78.5855 17.7196 85.3013 26.0039 85.3013H44.4712L45.849 86.6025V85.3013H147C155.284 85.3013 162 78.5855 162 70.3013V16.3013C162 8.017 155.284 1.30127 147 1.30127H45.849V0L44.4712 1.30127H26.0039C17.7196 1.30127 11.0039 8.017 11.0039 16.3013V32.9088Z" fill="#F8FBFF"/>
<path d="M0 43.3013L-0.686619 42.5743L-1.45641 43.3013L-0.686619 44.0283L0 43.3013ZM11.0039 32.9088L11.6905 33.6359L12.0039 33.3399V32.9088H11.0039ZM11.0039 53.6937H12.0039V53.2626L11.6905 52.9667L11.0039 53.6937ZM44.4712 85.3013L45.1578 84.5743L44.8688 84.3013H44.4712V85.3013ZM45.849 86.6025L45.1624 87.3296L46.849 88.9225V86.6025H45.849ZM45.849 85.3013V84.3013H44.849V85.3013H45.849ZM45.849 1.30127H44.849V2.30127H45.849V1.30127ZM45.849 0H46.849V-2.31991L45.1624 -0.727018L45.849 0ZM44.4712 1.30127V2.30127H44.8688L45.1578 2.02829L44.4712 1.30127ZM0.686619 44.0283L11.6905 33.6359L10.3173 32.1818L-0.686619 42.5743L0.686619 44.0283ZM11.6905 52.9667L0.686619 42.5743L-0.686619 44.0283L10.3173 54.4207L11.6905 52.9667ZM12.0039 70.3013V53.6937H10.0039V70.3013H12.0039ZM26.0039 84.3013C18.2719 84.3013 12.0039 78.0333 12.0039 70.3013H10.0039C10.0039 79.1378 17.1673 86.3013 26.0039 86.3013V84.3013ZM44.4712 84.3013H26.0039V86.3013H44.4712V84.3013ZM46.5356 85.8755L45.1578 84.5743L43.7846 86.0283L45.1624 87.3296L46.5356 85.8755ZM44.849 85.3013V86.6025H46.849V85.3013H44.849ZM147 84.3013H45.849V86.3013H147V84.3013ZM161 70.3013C161 78.0333 154.732 84.3013 147 84.3013V86.3013C155.837 86.3013 163 79.1378 163 70.3013H161ZM161 16.3013V70.3013H163V16.3013H161ZM147 2.30127C154.732 2.30127 161 8.56928 161 16.3013H163C163 7.46471 155.837 0.30127 147 0.30127V2.30127ZM45.849 2.30127H147V0.30127H45.849V2.30127ZM44.849 0V1.30127H46.849V0H44.849ZM45.1578 2.02829L46.5356 0.727018L45.1624 -0.727018L43.7846 0.574252L45.1578 2.02829ZM26.0039 2.30127H44.4712V0.30127H26.0039V2.30127ZM12.0039 16.3013C12.0039 8.56928 18.2719 2.30127 26.0039 2.30127V0.30127C17.1673 0.30127 10.0039 7.46471 10.0039 16.3013H12.0039ZM12.0039 32.9088V16.3013H10.0039V32.9088H12.0039Z" fill="#9B8FF3" mask="url(#path-1-inside-1_0_1)"/>
</svg>
