<svg width="138" height="70" viewBox="0 0 138 70" fill="none" xmlns="http://www.w3.org/2000/svg">
<mask id="path-1-inside-1_6626_22414" fill="white">
<path fill-rule="evenodd" clip-rule="evenodd" d="M25 0C16.7157 0 10 6.71573 10 15V26.1173L0 34.9996L10 43.8819V55C10 63.2843 16.7157 70 25 70H123C131.284 70 138 63.2843 138 55V15C138 6.71573 131.284 0 123 0H25Z"/>
</mask>
<path fill-rule="evenodd" clip-rule="evenodd" d="M25 0C16.7157 0 10 6.71573 10 15V26.1173L0 34.9996L10 43.8819V55C10 63.2843 16.7157 70 25 70H123C131.284 70 138 63.2843 138 55V15C138 6.71573 131.284 0 123 0H25Z" fill="#F8FBFF"/>
<path d="M10 26.1173L10.6641 26.8649L11 26.5666V26.1173H10ZM0 34.9996L-0.664089 34.2519L-1.50582 34.9996L-0.664089 35.7473L0 34.9996ZM10 43.8819H11V43.4326L10.6641 43.1343L10 43.8819ZM11 15C11 7.26801 17.268 1 25 1V-1C16.1634 -1 9 6.16345 9 15H11ZM11 26.1173V15H9V26.1173H11ZM0.664089 35.7473L10.6641 26.8649L9.33591 25.3696L-0.664089 34.2519L0.664089 35.7473ZM10.6641 43.1343L0.664089 34.2519L-0.664089 35.7473L9.33591 44.6296L10.6641 43.1343ZM11 55V43.8819H9V55H11ZM25 69C17.268 69 11 62.732 11 55H9C9 63.8366 16.1634 71 25 71V69ZM123 69H25V71H123V69ZM137 55C137 62.732 130.732 69 123 69V71C131.837 71 139 63.8366 139 55H137ZM137 15V55H139V15H137ZM123 1C130.732 1 137 7.26801 137 15H139C139 6.16344 131.837 -1 123 -1V1ZM25 1H123V-1H25V1Z" fill="#9B8FF3" mask="url(#path-1-inside-1_6626_22414)"/>
</svg>
