<svg width="860" height="250" viewBox="0 0 860 250" fill="none" xmlns="http://www.w3.org/2000/svg">
<path d="M45 125L817 125" stroke="#9B8FF3" stroke-width="2" stroke-linecap="round" stroke-dasharray="6 6"/>
<path d="M1 10C1 5.02944 5.02944 1 10 1H850C854.971 1 859 5.02944 859 10V78.0503C859 82.9781 854.925 87.0017 849.85 88.0048C808.55 96.1671 808.55 153.833 849.85 161.995C854.925 162.998 859 167.022 859 171.95V240C859 244.971 854.971 249 850 249H10C5.02944 249 1 244.971 1 240V171.95C1 167.017 5.05835 162.989 10.1309 162.143C32.8893 158.347 44.2133 141.741 44.1253 125.048C44.0373 108.364 32.5494 91.7351 10.1289 87.8824C5.05633 87.0108 1 82.983 1 78.0503V10Z" stroke="#9B8FF3" stroke-width="2"/>
</svg>
