<svg preserveAspectRatio="none" width="358" height="120" viewBox="0 0 358 120" fill="none" xmlns="http://www.w3.org/2000/svg">
<path d="M20 60L340 60" stroke="#9B8FF3" stroke-linecap="round" stroke-dasharray="6 6"/>
<path d="M10 0.5H348C353.247 0.5 357.5 4.7533 357.5 10V32.2637C357.5 34.8667 356.345 37.1635 354.596 39.2158C353.062 41.0145 351.093 42.6 349.105 44.0098L348.253 44.6035C343.261 48.0252 340.797 54.0373 340.797 60C340.797 65.7765 343.11 71.5993 347.793 75.0684L348.253 75.3965C350.521 76.9511 352.843 78.7284 354.596 80.7842C356.345 82.8365 357.5 85.1333 357.5 87.7363V110C357.5 115.247 353.247 119.5 348 119.5H10C4.7533 119.5 0.5 115.247 0.5 110V87.7363C0.5 85.1308 1.63324 82.8368 3.38184 80.8389C4.91439 79.0879 6.90412 77.5828 8.96484 76.3223L9.85156 75.7969C15.6374 72.474 18.472 66.2466 18.4521 60.0508C18.4329 54.0493 15.7359 48.0058 10.3662 44.584L9.83887 44.2617C7.48043 42.8786 5.13405 41.1844 3.38281 39.1738C1.63452 37.1666 0.5 34.8691 0.5 32.2637V10C0.5 4.7533 4.75329 0.5 10 0.5Z" stroke="#9B8FF3"/>
<defs>
<clipPath id="clip0_7207_55496">
<rect width="16" height="16" fill="white" transform="translate(32 82)"/>
</clipPath>
</defs>
</svg>
