<svg width="378" height="584" viewBox="0 0 378 584" fill="none" xmlns="http://www.w3.org/2000/svg" xmlns:xlink="http://www.w3.org/1999/xlink">
<g clip-path="url(#clip0_5651_19445)">
<path d="M51 461.998L328 462" stroke="#9B8FF3" stroke-width="2" stroke-linecap="round" stroke-dasharray="6 6"/>
<path d="M358 1C368.493 1 377 9.50659 377 20V399.277C377 405.453 373.912 410.61 369.218 414.779C364.515 418.955 358.263 422.079 352.137 424.14C336.291 429.473 328.944 445.234 329.17 460.995C329.397 476.747 337.186 492.911 352.094 499.19C358.09 501.715 364.353 505.117 369.102 509.468C373.845 513.813 377 519.028 377 525.215V564C377 574.493 368.493 583 358 583H20C9.50656 583 1 574.493 1 564V522.661C1 516.85 3.70294 511.856 7.89655 507.845C12.0983 503.827 17.7596 500.839 23.5283 499.094C41.5428 493.647 50.5507 477.605 50.6861 461.713C50.8215 445.824 42.0857 429.887 24.4579 424.687C18.5196 422.935 12.623 419.937 8.22964 415.871C3.84467 411.813 1 406.738 1 400.78V20C1 9.50658 9.50659 1 20 1H358Z" stroke="#9B8FF3" stroke-width="2"/>
</g>
</svg>
